<svg xmlns="http://www.w3.org/2000/svg" viewBox="0 0 64 64" role="img" aria-label="Study.AI"><defs><filter id="g"><feGaussianBlur stdDeviation="1.2" result="b"/><feMerge><feMergeNode in="b"/><feMergeNode in="SourceGraphic"/></feMerge></filter></defs><path d="M30 7c-7 0-12 5-12 11v2c-5 1-9 6-9 12s4 11 9 12v2c0 7 5 11 12 11h4V7h-4Zm8 4v42h4c5 0 9-4 9-9 4-2 7-6 7-11s-3-9-7-11c0-6-5-11-11-11h-2Z" fill="none" stroke="#16d3ee" stroke-width="5" stroke-linecap="round" stroke-linejoin="round" filter="url(#g)"/><path d="M23 20h11M18 32h16M24 44h10M39 22h9M39 33h14M39 45h8" fill="none" stroke="#dffaff" stroke-width="3" stroke-linecap="round" opacity=".9"/></svg>